<svg xmlns="http://www.w3.org/2000/svg" width="1015.138" height="910.919" viewBox="0 0 1015.138 910.919"><defs><style>.cls-1{fill:#fff;}.cls-2{fill:#22418e;}.cls-3{fill:#37b24a;}</style></defs><g id="Layer_3" data-name="Layer 3"><circle class="cls-1" cx="507.569" cy="455.46" r="445.021"/><path class="cls-1" d="M635.187,603.8c.03-.06.06-.13.09-.19l-.18.7Z"/><path class="cls-1" d="M650.487,588.749l.79-.35c-.13.07-.25.15-.37.23Z"/><path class="cls-2" d="M256.806,538.661c1-.5,1.99-1.06,2.96-1.67a39.413,39.413,0,0,0,14.04-15.54,50.949,50.949,0,0,0,.31-44.08,35.537,35.537,0,0,0-13.66-14.6q-8.805-5.205-20.69-5.21h-56.35v130.2h25.01v-45.19h20.69l25.17,45.19h30.25Zm-48.38-54.68h27.48a17.642,17.642,0,0,1,8.65,2.04,15.732,15.732,0,0,1,5.94,5.77,17.01,17.01,0,0,1,2.24,8.93,19.584,19.584,0,0,1-2.08,9.2,16.066,16.066,0,0,1-5.56,6.231,14.4,14.4,0,0,1-7.95,2.239h-28.72Z"/><polygon class="cls-2" points="400.476 560.791 400.476 587.761 311.556 587.761 311.556 457.561 398.936 457.561 398.936 484.531 337.026 484.531 337.026 508.711 391.986 508.711 391.986 534.381 337.026 534.381 337.026 560.791 400.476 560.791"/><path class="cls-2" d="M541.576,457.561v130.2h-24.7l-63.21-85.25c.02.24.05.48.07.72q.465,4.74.85,9.39t.7,9.39c.2,3.16.33,6.58.38,10.23s.08,7.661.08,12v43.52h-25.47v-130.2h24.39l63.82,86.39c-.28-2.42-.5-4.78-.68-7.06q-.465-6.045-.85-11.81c-.26-3.84-.46-7.63-.62-11.34-.15-3.73-.23-7.57-.23-11.54v-44.64Z"/><polygon class="cls-2" points="664.626 560.791 664.626 587.761 575.696 587.761 575.696 457.561 663.076 457.561 663.076 484.531 601.166 484.531 601.166 508.711 656.126 508.711 656.126 534.381 601.166 534.381 601.166 560.791 664.626 560.791"/><path class="cls-2" d="M844.476,457.561l-38.14,130.2h-20.06l-25.15-72.44-24.1,72.44h-21.46l-35.51-130.2h27.02l17.44,65.66q1.08,4.1,2.16,9.11t2.09,10.05c.16.8.31,1.6.46,2.38q.93-4.575,2.16-9.26,1.62-6.135,3.63-12.28l16.21-48.73h21.61l16.06,48.54q2.16,6.705,3.86,13.03,1.215,4.515,2.19,8.76.51-3.36,1.21-6.81c.51-2.54,1.05-5.12,1.62-7.72s1.15-5.139,1.77-7.63l18.84-65.1Z"/><path class="cls-2" d="M210.878,328.7c10.547,19.48-3.789,57.75-3.789,57.75h17.382c41.363-36.47,81.392-28.564,109.594,16.31-25.927-29.624-76.378-43.207-103.188.342,0,0-43.3-.184-45.542,0,.4-.082,15.451-57.36,1.479-78.474C194.187,323.1,203.834,325.654,210.878,328.7Z"/><path class="cls-2" d="M787.967,403.071c-30.756-5.542-38.4-4.145-49.752-15.052-33.646-32.336-75.082-30.841-99.311,3.636C630.932,403,614.375,400.9,599.45,403.071h44.062c21.913-39.468,67.809-37.891,88.678-1.3C749.1,401.072,771.055,403.816,787.967,403.071Z"/><path class="cls-2" d="M796.905,376.856c-15.333-3.048-43.4-2.77-56.578-16.481,0,.711,8.041,18.5,13.366,18.5C760.893,378.876,796.86,377.736,796.905,376.856Z"/><path class="cls-3" d="M185.277,318.452c47.332,1.8,88.605,14.484,131.564,34.436,82.582,38.357,145.827,59.273,269.083,50.386,0,0-89.861,6.9-224.1-50.386-26.763-11.42-51.036-21.782-87.115-33.076a1419.868,1419.868,0,0,1,213.7,36.424l-17.032-27.755c50.577,8.526,99.031,10.872,161.615,11.265,107.307.673,149.164,14.377,173.031,38.735,12.791-39.1-127.547-58.995-159.715-70.364C572.2,281.923,494.833,255.331,416.778,264.61c-53.989,6.417-105.184,29.774-157.581,43.534C234.946,314.513,185.277,318.452,185.277,318.452ZM310.789,307.5C450.523,245.005,545.544,309.53,633,321.151c-62.75,4.546-206.747-16.987-206.747-16.987l11.343,24.54S379.066,309.82,310.789,307.5Z"/><path class="cls-2" d="M725.111,283.653l1.755.528a1.821,1.821,0,0,0,2.349-.984l4.417-14.531a1.812,1.812,0,0,0-1.409-2.119l-1.756-.528a1.821,1.821,0,0,0-2.349.985l-4.417,14.53A1.813,1.813,0,0,0,725.111,283.653Z"/><path class="cls-2" d="M768.618,441.319a216,216,0,0,0,31.811-18.146c9.908-7.031,19.2-15.142,26.062-24.975a56.04,56.04,0,0,0,7.833-15.845,42.7,42.7,0,0,0,1.57-17.222,48.513,48.513,0,0,0-5.114-16.483,69.576,69.576,0,0,0-10-14.386c-7.856-8.818-17.382-16.176-27.422-22.662a247.216,247.216,0,0,0-31.787-16.941c-10.981-4.963-22.28-9.268-33.724-13.15S704.8,274.2,693.086,271.128l3.832-13.342c11.829,3.7,23.55,7.782,35.106,12.316s22.955,9.51,34.049,15.168a256.676,256.676,0,0,1,32.146,19.141c10.175,7.281,19.863,15.489,27.875,25.383a75.92,75.92,0,0,1,10.157,16.219,54.113,54.113,0,0,1,4.829,18.668,47.477,47.477,0,0,1-2.631,19.014,59.928,59.928,0,0,1-9.159,16.554c-7.688,9.96-17.557,17.73-27.9,24.366A216.933,216.933,0,0,1,768.618,441.319Z"/><path class="cls-2" d="M709.82,252c12.221,3.675,19.943,13.843,17.248,22.71s-14.786,13.075-27.007,9.4l-12.79-3.847,9.759-32.109Z"/><rect class="cls-2" x="684.109" y="262.562" width="4.628" height="11.451" rx="0.961" transform="translate(231.173 847.858) rotate(-73.198)"/><rect class="cls-2" x="687.949" y="249.942" width="4.57" height="11.451" rx="0.956" transform="translate(245.964 842.534) rotate(-73.198)"/></g></svg>